<svg xmlns="http://www.w3.org/2000/svg" width="105" height="117" viewBox="0 0 105 117">
    <path fill="#5070D7" fill-rule="evenodd" d="M15.92 74.953c0-1.262.612-2.285 1.368-2.285h27.96c.757 0 1.37 1.023 1.37 2.285 0 1.262-.613 2.285-1.37 2.285h-27.96c-.756 0-1.369-1.023-1.369-2.285zm0-15.996c0-1.262 1.023-2.285 2.284-2.285h46.694c1.263 0 2.286 1.023 2.286 2.285 0 1.262-1.023 2.285-2.286 2.285H18.204c-1.26 0-2.285-1.023-2.285-2.285zm0-15.996c0-1.262 1.023-2.285 2.284-2.285h46.694c1.263 0 2.286 1.023 2.286 2.285 0 1.262-1.023 2.285-2.286 2.285H18.204c-1.26 0-2.285-1.023-2.285-2.285zm0-15.996c0-1.262 1.023-2.285 2.284-2.285h46.694c1.263 0 2.286 1.023 2.286 2.285 0 1.262-1.023 2.285-2.286 2.285H18.204c-1.26 0-2.285-1.023-2.285-2.285zm84.169 5.256c0 1.26-1.025 2.285-2.285 2.285H82.722V13.254c0-4.788 3.895-8.684 8.683-8.684s8.684 3.896 8.684 8.684V32.22zM78.15 13.254v73.643c0 2.108-1.714 3.823-3.823 3.823-1.647 0-3.105-1.05-3.627-2.614l-3.444-10.333c-.972-2.917-3.692-4.877-6.766-4.877-3.933 0-7.133 3.2-7.133 7.132v17.719c0 .786.038 1.567.109 2.342H6.855c-1.26 0-2.285-1.025-2.285-2.285v-84.55c0-4.788 3.896-8.684 8.684-8.684h68.151c-2.023 2.328-3.254 5.364-3.254 8.684zM91.405 0H13.254C5.946 0 0 5.946 0 13.254v84.55c0 3.78 3.075 6.855 6.855 6.855h47.46c.275.97.607 1.926 1 2.866l3.36 8.068c.367.878 1.216 1.407 2.111 1.407.293 0 .591-.056.878-.176 1.165-.486 1.716-1.824 1.23-2.988l-3.361-8.069c-1.064-2.554-1.604-5.252-1.604-8.02V80.03c0-1.413 1.148-2.562 2.562-2.562 1.104 0 2.081.703 2.43 1.751l3.444 10.333c1.144 3.432 4.345 5.74 7.963 5.74 4.628 0 8.394-3.766 8.394-8.394v-39.18l3.053 3.048c5.45 5.438 8.45 12.673 8.45 20.37v24.292c0 6.292-1.426 12.622-4.122 18.308-.54 1.14-.054 2.503 1.085 3.044 1.14.54 2.503.055 3.044-1.086 2.984-6.293 4.563-13.301 4.563-20.266V71.135c0-8.92-3.477-17.303-9.79-23.605l-6.283-6.27v-2.184h15.082c3.78 0 6.855-3.075 6.855-6.855V13.254C104.66 5.946 98.714 0 91.405 0z"/>
</svg>
