<svg xmlns="http://www.w3.org/2000/svg" xmlns:xlink="http://www.w3.org/1999/xlink" width="430" height="113" viewBox="0 0 430 113">
    <defs>
        <path id="prefix__a" d="M0 0L103 0 103 113 0 113z"/>
    </defs>
    <g fill="none" fill-rule="evenodd">
        <g fill="#5070D7" fill-rule="nonzero">
            <path d="M11.253 27.375c3.044 0 5.496-.807 7.357-2.422 1.86-1.615 2.892-3.827 3.095-6.638h-5.351c-.119 1.59-.586 2.766-1.4 3.525-.815.76-2.048 1.14-3.701 1.14-1.831 0-3.172-.652-4.022-1.956-.85-1.304-1.275-3.367-1.275-6.19v-1.973c.024-2.703.478-4.697 1.364-5.983.886-1.286 2.22-1.929 4.004-1.929 1.641 0 2.863.38 3.665 1.14.803.76 1.27 1.982 1.4 3.668h5.351c-.285-2.918-1.343-5.184-3.174-6.799C16.734 1.343 14.32.536 11.324.536c-2.164 0-4.063.511-5.698 1.534C3.99 3.093 2.734 4.56 1.854 6.474c-.88 1.914-1.32 4.127-1.32 6.638v1.597c0 3.935.954 7.03 2.862 9.284 1.909 2.255 4.528 3.382 7.857 3.382zm24.274 0c2.176 0 4.105-.526 5.788-1.579 1.682-1.052 2.975-2.547 3.879-4.485.904-1.937 1.355-4.192 1.355-6.763V13.38c0-2.56-.46-4.817-1.382-6.772-.921-1.956-2.223-3.457-3.906-4.503-1.682-1.047-3.606-1.57-5.77-1.57-2.164 0-4.087.523-5.77 1.57-1.682 1.046-2.984 2.547-3.905 4.503-.922 1.955-1.383 4.219-1.383 6.79v1.292c.012 2.512.482 4.733 1.41 6.665.927 1.932 2.235 3.418 3.923 4.458 1.689 1.04 3.609 1.56 5.761 1.56zm0-4.413c-1.831 0-3.234-.736-4.21-2.207-.974-1.471-1.462-3.54-1.462-6.207v-1.274c.012-2.715.506-4.775 1.48-6.18.976-1.406 2.36-2.109 4.156-2.109 1.808 0 3.199.712 4.174 2.135.975 1.423 1.462 3.505 1.462 6.243v1.274c-.012 2.715-.499 4.781-1.462 6.199-.963 1.417-2.343 2.126-4.138 2.126zm27.306 4.054L71.876.895h-5.957L60.033 20.54 54.183.895h-5.94l9.008 26.121h5.582zm17.176 0V.895h-5.351v26.121h5.35zm13.002 0c2.27-.012 4.31-.538 6.117-1.579 1.808-1.04 3.208-2.505 4.2-4.395.993-1.89 1.49-4.049 1.49-6.477v-1.202c0-2.427-.506-4.595-1.516-6.503-1.01-1.908-2.417-3.379-4.218-4.413C97.282 1.412 95.24.895 92.957.895h-7.99v26.121h8.044zm-.107-4.324h-2.586V5.254h2.64c2.104 0 3.703.685 4.797 2.055 1.094 1.37 1.64 3.381 1.64 6.037v1.381c-.023 2.56-.588 4.527-1.694 5.902-1.105 1.376-2.705 2.063-4.797 2.063zm25.487-4.772v-4.18h-10.042v4.18h10.042zm16.444 9.096V.86h-.553l-10.755 3.875V8.95l6.153-1.92v19.986h5.155zm12.074.251l1.267-.018c3.947-.167 6.997-1.495 9.15-3.982 2.152-2.488 3.228-5.909 3.228-10.262v-1.92c-.012-2.081-.387-3.929-1.124-5.544-.737-1.614-1.772-2.852-3.103-3.713-1.332-.861-2.854-1.292-4.566-1.292-1.665 0-3.163.398-4.495 1.193-1.332.795-2.369 1.908-3.112 3.337-.743 1.43-1.115 3-1.115 4.71 0 2.69.69 4.828 2.07 6.413 1.378 1.585 3.215 2.377 5.51 2.377 1.796 0 3.365-.664 4.709-1.991-.369 4.03-2.794 6.147-7.277 6.35l-1.142.019v4.323zm4.977-12.666c-1.178 0-2.09-.457-2.738-1.372-.648-.915-.972-2.084-.972-3.507 0-1.436.333-2.629.999-3.58.665-.95 1.516-1.426 2.55-1.426 1.118 0 2.01.485 2.675 1.453.666.97 1 2.333 1 4.09v2.136c-.31.61-.765 1.13-1.365 1.56-.6.431-1.317.646-2.15.646zm27.341 12.415v-7.14l-.535-12.307 6.992 19.447h3.674l7.01-19.465-.536 12.325v7.14h5.369V.895h-7.028L187.54 19.84 180.869.895h-6.992v26.121h5.35zm30.142 0l1.784-5.382h9.381l1.802 5.382h5.69L218.304.895h-4.958l-9.667 26.121h5.69zm9.72-9.742h-6.492l3.229-9.777 3.264 9.777zm16.712 9.742v-7.463l2.783-3.014 6.67 10.477h6.367l-9.488-14.514L251.354.895h-6.581l-6.617 8.593-2.355 3.248V.895h-5.35v26.121h5.35zm35.243 0v-4.324h-12.056v-6.996h10.273V11.48h-10.273V5.254h12.02V.894h-17.371v26.122h17.407zm8.49 0v-9.562h4.263l4.869 9.562h5.743v-.251L288.79 16.09c1.557-.705 2.72-1.653 3.486-2.843.767-1.19 1.15-2.676 1.15-4.458 0-2.512-.832-4.456-2.496-5.83-1.665-1.376-4.031-2.064-7.099-2.064h-9.649v26.121h5.351zm4.316-13.922h-4.316v-7.84h4.298c1.44 0 2.506.353 3.202 1.059.695.706 1.043 1.674 1.043 2.906 0 1.208-.368 2.156-1.106 2.844-.737.688-1.777 1.031-3.12 1.031zm23.061 14.28c2.878 0 5.167-.642 6.867-1.928 1.7-1.285 2.55-3.058 2.55-5.319 0-2.033-.695-3.732-2.086-5.095-1.391-1.364-3.609-2.506-6.653-3.427-1.653-.502-2.904-1.04-3.754-1.614-.85-.574-1.275-1.286-1.275-2.135 0-.91.362-1.642 1.088-2.198.725-.556 1.741-.834 3.05-.834 1.355 0 2.407.332 3.156.996.75.663 1.124 1.593 1.124 2.79h5.35c0-1.568-.4-2.967-1.203-4.199-.803-1.232-1.93-2.186-3.38-2.861-1.45-.676-3.104-1.014-4.958-1.014-1.843 0-3.505.311-4.985.933-1.48.622-2.616 1.486-3.407 2.592-.79 1.107-1.186 2.366-1.186 3.777 0 2.715 1.474 4.874 4.423 6.476 1.082.586 2.55 1.181 4.405 1.785 1.855.604 3.14 1.178 3.853 1.723.713.544 1.07 1.324 1.07 2.34 0 .934-.357 1.66-1.07 2.18-.713.52-1.706.781-2.979.781-3.424 0-5.136-1.441-5.136-4.324h-5.369c0 1.687.431 3.17 1.293 4.45.862 1.28 2.114 2.287 3.755 3.023 1.64.735 3.46 1.103 5.457 1.103zM14.003 60.516v-2.771H4.469v-6.146h8.156v-2.744H4.47V43.34h9.438V40.54H1.02v19.975h12.984zm4.896 0l2.932-5.076 2.946 5.076h3.656l-4.665-7.532 4.515-7.312H24.6l-2.81 4.884-2.754-4.884H15.38l4.501 7.312-4.664 7.532h3.682zm16.299.275c.7 0 1.427-.106 2.182-.316v-2.58c-.391.092-.778.138-1.16.138-.572 0-.97-.126-1.193-.377-.223-.252-.334-.661-.334-1.228V48.14h2.605v-2.469h-2.605v-3.608h-3.314v3.608H28.95v2.47h2.428v8.41c0 2.825 1.273 4.239 3.819 4.239zm7.937-.275V50.364c.528-1.17 1.55-1.756 3.07-1.756.463 0 .913.037 1.35.11l.013-3.128c-.31-.128-.7-.192-1.173-.192-1.418 0-2.528.644-3.328 1.934l-.082-1.66h-3.164v14.844h3.314zm13.012.275c1.227 0 2.334-.245 3.321-.734.987-.49 1.775-1.178 2.366-2.065l-1.786-1.715c-.955 1.235-2.192 1.852-3.71 1.852-1.082 0-1.98-.357-2.694-1.07-.714-.713-1.12-1.683-1.22-2.909h9.642v-1.344c0-2.36-.548-4.184-1.643-5.474-1.096-1.29-2.649-1.934-4.658-1.934-1.264 0-2.41.324-3.437.974-1.027.65-1.825 1.557-2.394 2.723-.568 1.166-.852 2.49-.852 3.972v.411c0 2.214.652 3.986 1.957 5.316 1.305 1.331 3.008 1.997 5.108 1.997zm2.646-9.083h-6.315c.155-1.143.512-2.035 1.07-2.675.56-.64 1.294-.96 2.203-.96.919 0 1.637.286 2.155.857.519.572.814 1.416.887 2.532v.246zm9.152 8.808V49.76c.554-1.088 1.495-1.632 2.823-1.632 1.727 0 2.614.873 2.66 2.62v9.768h3.314l-.014-10.18c.19-.658.525-1.19 1.002-1.598.478-.407 1.094-.61 1.849-.61.945 0 1.623.22 2.032.658.409.44.613 1.13.613 2.072v9.658h3.315v-9.754c-.018-1.765-.425-3.1-1.221-4.006-.796-.906-2.007-1.358-3.635-1.358-1.946 0-3.455.759-4.528 2.277-.727-1.518-2.077-2.277-4.05-2.277-1.8 0-3.22.608-4.256 1.824l-.095-1.55H64.63v14.844h3.315zm25.559.275c1.527 0 2.819-.554 3.873-1.66.11.64.237 1.102.382 1.385h3.383v-.233c-.373-.796-.56-1.861-.56-3.197v-6.695c-.027-1.582-.554-2.81-1.582-3.683-1.027-.874-2.405-1.31-4.132-1.31-1.137 0-2.167.2-3.09.603-.922.403-1.652.958-2.189 1.667-.536.709-.804 1.47-.804 2.284h3.314c0-.585.241-1.067.723-1.447.482-.38 1.1-.57 1.855-.57.873 0 1.523.232 1.95.694.427.461.641 1.076.641 1.845v.974h-2.032c-2.173 0-3.844.423-5.012 1.269-1.169.846-1.753 2.06-1.753 3.642 0 1.253.468 2.305 1.405 3.156.936.85 2.146 1.276 3.628 1.276zm.614-2.676c-.71 0-1.276-.19-1.698-.57-.423-.379-.635-.889-.635-1.529 0-.786.31-1.395.928-1.824.618-.43 1.541-.645 2.768-.645h1.787v2.799c-.29.54-.725.969-1.302 1.29-.578.32-1.194.48-1.848.48zm15.111 2.676c1.655 0 2.978-.604 3.97-1.811l.163 1.536h3V39.444h-3.314v7.6c-.963-1.098-2.227-1.646-3.791-1.646-1.773 0-3.187.692-4.242 2.078-1.055 1.386-1.582 3.222-1.582 5.508 0 2.406.534 4.308 1.602 5.707 1.069 1.4 2.467 2.1 4.194 2.1zm.846-2.717c-1.064 0-1.884-.423-2.462-1.269-.577-.846-.866-2.023-.866-3.533 0-1.719.291-3.006.873-3.862.582-.855 1.41-1.282 2.482-1.282 1.355 0 2.337.594 2.946 1.783v6.338c-.627 1.217-1.618 1.825-2.973 1.825zm14.54 2.717c1.79 0 3.172-.577 4.145-1.73l.082 1.455h3.123V45.672h-3.314v10.66c-.564 1.161-1.65 1.742-3.26 1.742-1.554 0-2.332-.942-2.332-2.826v-9.576h-3.314v9.617c0 1.784.411 3.146 1.234 4.088.823.942 2.035 1.414 3.635 1.414zm14.034-.275V50.364c.527-1.17 1.55-1.756 3.068-1.756.464 0 .914.037 1.35.11l.014-3.128c-.309-.128-.7-.192-1.173-.192-1.418 0-2.528.644-3.328 1.934l-.082-1.66h-3.164v14.844h3.315zm11.074.275c1.528 0 2.819-.554 3.874-1.66.109.64.236 1.102.382 1.385h3.382v-.233c-.373-.796-.56-1.861-.56-3.197v-6.695c-.026-1.582-.554-2.81-1.581-3.683-1.028-.874-2.405-1.31-4.133-1.31-1.136 0-2.166.2-3.089.603-.923.403-1.653.958-2.19 1.667-.536.709-.804 1.47-.804 2.284h3.314c0-.585.241-1.067.723-1.447.482-.38 1.1-.57 1.855-.57.873 0 1.523.232 1.95.694.428.461.642 1.076.642 1.845v.974h-2.033c-2.173 0-3.843.423-5.012 1.269-1.168.846-1.752 2.06-1.752 3.642 0 1.253.468 2.305 1.404 3.156.937.85 2.146 1.276 3.628 1.276zm.614-2.676c-.71 0-1.275-.19-1.698-.57-.423-.379-.634-.889-.634-1.529 0-.786.309-1.395.927-1.824.619-.43 1.541-.645 2.769-.645h1.787v2.799c-.291.54-.726.969-1.303 1.29-.577.32-1.193.48-1.848.48z" transform="translate(113 19)"/>
        </g>
        <mask id="prefix__b" fill="#fff">
            <use xlink:href="#prefix__a"/>
        </mask>
        <path fill="#5070D7" d="M99.567 11.255H3.433V5.207c.001-.958.77-1.735 1.717-1.736h92.7c.948.001 1.716.778 1.717 1.736v6.048zm-57.848 6.943c-.053-.053-.094-.117-.117-.188l-1.299-3.284h22.394l-1.3 3.284c-.023.07-.062.134-.112.188H41.72zm11.498 10.414v8.678c0 .959-.769 1.736-1.717 1.736-.948 0-1.716-.777-1.716-1.736v-8.678h3.433zM46.35 25.14c-.948 0-1.716-.777-1.717-1.735v-1.736h13.734v1.736c-.001.958-.77 1.735-1.717 1.735h-10.3zm53.217 53.807h-8.962c3.085-6.865 3.05-14.943-.417-21.885-2.447-5.492-7.654-9.4-10.209-10.729-4.655-2.61-10.139-3.654-15.442-2.94-4.964.668-9.507 2.77-13.232 6.104-4.575-4.1-10.4-6.343-16.566-6.343-6.68 0-12.96 2.63-17.685 7.406-4.723 4.776-7.325 11.127-7.325 17.881 0 3.686.777 7.25 2.248 10.506H3.433v-64.22h33.171l1.81 4.572c.443 1.242 1.519 2.123 2.786 2.325v1.78c.003 2.875 2.307 5.205 5.15 5.208v8.678c.003 2.875 2.307 5.204 5.15 5.207 2.843-.003 5.147-2.332 5.15-5.207v-8.678c2.843-.003 5.147-2.333 5.15-5.207v-1.78c1.267-.203 2.343-1.084 2.786-2.326l1.81-4.573h33.17v64.22zm-16.323 5.07l-1.231 1.245c-.298-.789-.758-1.53-1.386-2.164L63.943 66.23c1.091-.543 2.1-1.267 2.984-2.162l3.2-3.235c.634-.641.634-1.681 0-2.322s-1.662-.641-2.296 0l-3.2 3.235c-1.503 1.52-3.502 2.357-5.627 2.357h-6.397c-.43 0-.844.173-1.148.481l-4.897 4.951c-1.454 1.47-3.82 1.47-5.274 0-1.455-1.47-1.455-3.862 0-5.333L52.468 52.9c6.753-6.829 17.253-8.387 25.645-3.85 0 0 5.755 3.325 8.533 8.215.034.111.835 1.678.835 1.678 3.958 8.34 2.313 18.453-4.237 25.075zm-4.914 5.508c-.542.549-1.263.85-2.03.85-.767 0-1.488-.301-2.03-.85l-6.76-6.834-6.356-6.427c-.634-.64-1.662-.64-2.297 0-.634.641-.634 1.68 0 2.322l13.116 13.26c1.12 1.133 1.12 2.975 0 4.107-.542.548-1.263.85-2.03.85-.767 0-1.488-.302-2.03-.85L54.797 82.692c-.634-.641-1.662-.641-2.297 0-.634.64-.634 1.68 0 2.321l6.356 6.426.002.002 6.758 6.833c1.12 1.133 1.12 2.974 0 4.106-1.12 1.132-2.941 1.132-4.06 0l-6.759-6.833c-.125-.127-.266-.227-.415-.303l-5.098-5.515c-.635-.641-1.662-.641-2.297 0-.634.64-.634 1.68 0 2.321l12.215 12.71c1.12 1.132 1.12 2.974 0 4.106-.543.548-1.264.85-2.03.85-.768 0-1.489-.302-2.031-.85l-3.441-3.48c.262-.695.4-1.44.4-2.207 0-1.652-.636-3.205-1.792-4.374-1.155-1.168-2.692-1.812-4.326-1.812-.083 0-.165.003-.247.006.065-1.666-.529-3.353-1.784-4.621-1.156-1.169-2.692-1.813-4.326-1.813-.083 0-.165.003-.247.007.065-1.666-.528-3.353-1.783-4.622-1.156-1.169-2.693-1.812-4.327-1.812-.083 0-.165.003-.247.006.065-1.666-.529-3.353-1.783-4.622-2.386-2.412-6.268-2.412-8.654 0l-2.798 2.83c-.353.356-.652.747-.901 1.16-3.814-4.096-5.908-9.42-5.908-15.071 0-5.878 2.264-11.403 6.375-15.56 4.11-4.155 9.575-6.444 15.388-6.444 5.283 0 10.278 1.89 14.23 5.354l-9.978 10.09c-1.318 1.332-2.044 3.103-2.044 4.988 0 1.884.726 3.656 2.044 4.988 1.36 1.375 3.147 2.063 4.934 2.063 1.786 0 3.573-.688 4.933-2.063l4.422-4.47h5.724c.472 0 .94-.033 1.401-.091l17.925 18.123c1.119 1.133 1.119 2.975 0 4.106zm-30.318 15.708l-2.799 2.829c-.542.549-1.263.85-2.03.85-.767 0-1.488-.301-2.03-.85-1.12-1.132-1.12-2.974 0-4.106l2.798-2.829c.542-.549 1.263-.85 2.03-.85.767 0 1.489.301 2.03.85.543.548.842 1.277.842 2.053s-.299 1.504-.841 2.053zm-13.216-3.599c-.543-.548-.841-1.277-.841-2.053 0-.775.298-1.504.84-2.052l2.799-2.83c.542-.548 1.263-.85 2.03-.85.767 0 1.488.302 2.03.85 1.12 1.133 1.12 2.974 0 4.106l-2.798 2.83c-1.12 1.131-2.94 1.131-4.06 0zm-6.357-6.427c-.543-.548-.841-1.277-.841-2.053 0-.775.298-1.504.84-2.053l2.8-2.83c.542-.547 1.263-.85 2.03-.85.766 0 1.487.302 2.03.85 1.12 1.133 1.12 2.975 0 4.107L32.5 95.207c-1.12 1.132-2.942 1.132-4.061 0zm-4.327-5.577c-.767 0-1.488-.302-2.03-.85-.543-.55-.842-1.278-.842-2.054 0-.775.3-1.504.841-2.052l2.799-2.83c.542-.548 1.263-.85 2.03-.85.767 0 1.488.302 2.03.85 1.12 1.133 1.12 2.974 0 4.106l-2.798 2.83c-.542.548-1.263.85-2.03.85zM97.85 0H5.15C2.307.003.003 2.333 0 5.207v87.625c.003 2.875 2.307 5.204 5.15 5.207h10.922c.948 0 1.717-.777 1.717-1.735 0-.959-.77-1.736-1.717-1.736H5.15c-.948-.001-1.716-.777-1.717-1.736V82.418h10.455c.915 1.39 1.973 2.697 3.166 3.904l.612.619c.107.107.225.195.35.266.109 1.42.697 2.81 1.77 3.894 1.192 1.206 2.759 1.81 4.326 1.81.081 0 .163-.003.244-.007-.003.083-.006.166-.006.25 0 1.652.637 3.206 1.792 4.374 1.193 1.207 2.76 1.81 4.327 1.81.081 0 .163-.003.244-.006-.003.083-.006.166-.006.25 0 1.652.636 3.205 1.792 4.374 1.193 1.206 2.76 1.809 4.327 1.809.082 0 .164-.003.247-.006-.066 1.666.528 3.355 1.783 4.624 1.156 1.17 2.693 1.813 4.327 1.813s3.17-.644 4.326-1.813l2.27-2.294 3.065 3.099C54 112.356 55.536 113 57.17 113c1.635 0 3.171-.644 4.327-1.812 1.27-1.285 1.864-2.999 1.781-4.685.102.005.205.008.307.008 1.567 0 3.134-.603 4.327-1.809 1.255-1.269 1.848-2.956 1.783-4.621.082.003.164.005.247.005 1.634 0 3.17-.643 4.327-1.811 1.255-1.27 1.848-2.956 1.783-4.622.082.003.164.006.247.006 1.634 0 3.17-.643 4.326-1.812.587-.593 1.03-1.279 1.327-2.01.159-.078.307-.182.438-.315l3.15-3.183c1.2-1.213 2.255-2.528 3.166-3.92h10.86v10.413c0 .959-.768 1.735-1.716 1.736H84.895c-.948 0-1.717.777-1.717 1.736 0 .958.769 1.735 1.717 1.735H97.85c2.843-.003 5.147-2.332 5.15-5.207V5.207C102.997 2.333 100.693.003 97.85 0z" mask="url(#prefix__b)"/>
    </g>
</svg>
