<svg xmlns="http://www.w3.org/2000/svg" width="130" height="117" viewBox="0 0 130 117">
    <path fill="#5070D7" fill-rule="evenodd" d="M75.22 55.856C56.08 39.53 45 31.446 45 20.236 45 11.548 51.013 5 58.987 5c10.508 0 14.046 12.206 14.081 12.329.301 1.075 1.28 1.823 2.404 1.846v.002h.005l.023-.001.023.001h.005v-.002c1.124-.023 2.103-.77 2.404-1.846C77.967 17.206 81.506 5 92.014 5 99.987 5 106 11.549 106 20.235c0 11.212-11.079 19.294-30.22 35.621-.18.159-.297.222-.56 0zm.28-45.414C71.899 4.174 66.316 0 59.03 0 47.914 0 40 9.226 40 20.359c0 14.073 12.824 23.129 33.554 41.023.478.412 1.071.618 1.665.618.094 0 .187-.009.28-.02.095.011.188.02.282.02.594 0 1.188-.206 1.665-.618C98.176 43.488 111 34.432 111 20.36 111 9.226 103.087 0 91.97 0 84.684 0 79.102 4.174 75.5 10.442zm46.449 78.053l-47.697 21.038C70.66 111.171 66.84 112 62.897 112c-4.97 0-9.85-1.354-14.111-3.916l-13.343-8.02C32.587 98.35 28.497 97.302 25 96.883V66h17.646c2.188 0 4.35.567 6.255 1.642l13.479 7.594c1.142.645 2.441.987 3.755.987h16.52c2.814 0 5.103 2.292 5.103 5.11 0 2.809-2.29 5.112-5.102 5.112H56.72c-1.409 0-2.551 1.144-2.551 2.556 0 1.41 1.142 2.554 2.551 2.554h25.935c1.673 0 3.32-.416 4.782-1.197l31.02-10.681c2.286-.827 4.871-.005 5.884 1.874 1.52 2.816.264 5.878-2.312 6.912l-.081.032zM20 99.45c-.006 1.408-1.126 2.551-2.5 2.551H5V61h12.5c1.378 0 2.5 1.15 2.5 2.562V99.45zm72.764-16.23c.106-.59.165-1.192.165-1.803 0-5.606-4.555-10.167-10.156-10.167H66.33c-.436 0-.867-.112-1.246-.326L51.669 63.37c-2.652-1.497-5.666-2.288-8.716-2.288h-18C23.906 58.125 21.083 56 17.773 56H2.54C1.137 56 0 57.138 0 58.542v45.75c0 1.404 1.137 2.541 2.539 2.541h15.234c3.235 0 6.008-2.034 7.109-4.892 2.874.358 6.2 1.209 8.29 2.464l13.278 7.975c5.03 3.023 10.79 4.62 16.658 4.62 4.65 0 9.154-.977 13.39-2.903l47.391-20.889c5.249-2.131 7.84-8.435 4.84-13.991-2.207-4.089-7.375-5.907-12.029-4.237l-23.936 8.238z"/>
</svg>
