<svg xmlns="http://www.w3.org/2000/svg" width="38" height="38" viewBox="0 0 38 38">
    <g fill="none" fill-rule="evenodd">
        <path d="M0 0L38 0 38 38 0 38z"/>
        <path fill="#5070D7" d="M23.843 15.877h-3.55v-2.59c0-.796.822-.98 1.206-.98h2.293V8.813l-2.628-.015c-3.586 0-4.405 2.607-4.405 4.279v2.8h-2.601v3.601h2.6v9.725h3.535v-9.725h3l.55-3.6zm-4.844-12.07C10.622 3.807 3.807 10.623 3.807 19c0 8.38 6.815 15.193 15.192 15.193 8.38 0 15.194-6.814 15.194-15.193 0-8.377-6.815-15.193-15.194-15.193zm0 32.61C9.396 36.417 1.583 28.603 1.583 19c0-9.604 7.813-17.416 17.416-17.416 9.605 0 17.417 7.812 17.417 17.416 0 9.603-7.812 17.417-17.417 17.417z"/>
    </g>
</svg>
