<svg xmlns="http://www.w3.org/2000/svg" width="38" height="38" viewBox="0 0 38 38">
    <g fill="none" fill-rule="evenodd">
        <path d="M0 0L38 0 38 38 0 38z"/>
        <path fill="#5070D7" d="M19 3.807C10.621 3.807 3.806 10.623 3.806 19c0 8.38 6.815 15.193 15.194 15.193 8.379 0 15.194-6.814 15.194-15.193 0-8.377-6.815-15.193-15.194-15.193m0 32.61C9.397 36.417 1.583 28.603 1.583 19 1.583 9.396 9.397 1.584 19 1.584c9.603 0 17.417 7.812 17.417 17.416 0 9.603-7.814 17.417-17.417 17.417m8.355-22.184c-.274.122-.557.225-.847.309.342-.388.603-.843.763-1.341.035-.111-.001-.233-.093-.306-.094-.074-.22-.082-.32-.022-.614.364-1.276.625-1.97.777-.7-.682-1.648-1.072-2.63-1.072-2.072 0-3.757 1.687-3.757 3.76 0 .162.01.324.03.484-2.571-.227-4.962-1.49-6.602-3.503-.059-.072-.149-.11-.24-.104-.094.008-.177.06-.224.14-.333.57-.508 1.225-.508 1.89 0 .904.323 1.764.894 2.435-.174-.06-.342-.135-.503-.225-.086-.047-.192-.047-.277.003-.086.048-.14.138-.143.238v.05c0 1.351.727 2.569 1.838 3.232-.093-.01-.19-.024-.283-.043-.1-.017-.2.016-.264.09-.067.077-.09.18-.059.274.412 1.285 1.47 2.231 2.753 2.52-1.064.665-2.278 1.013-3.553 1.013-.267 0-.535-.014-.796-.046-.13-.016-.255.06-.3.184-.044.123.002.262.115.334 1.639 1.05 3.532 1.605 5.48 1.605 3.825 0 6.217-1.803 7.55-3.317 1.665-1.887 2.618-4.384 2.618-6.853l-.003-.31c.655-.495 1.22-1.094 1.68-1.781.07-.105.063-.242-.02-.339-.079-.097-.213-.127-.329-.076"/>
    </g>
</svg>
