<svg xmlns="http://www.w3.org/2000/svg" width="36" height="36" viewBox="0 0 36 36">
    <g fill="none" fill-rule="evenodd">
        <path d="M0 0L38 0 38 38 0 38z" transform="translate(-1 -1)"/>
        <path fill="#5070D7" d="M19 1.584c9.603 0 17.417 7.812 17.417 17.416 0 9.603-7.814 17.417-17.417 17.417-9.603 0-17.417-7.814-17.417-17.417C1.583 9.396 9.397 1.584 19 1.584zm0 2.223C10.621 3.807 3.806 10.623 3.806 19c0 8.38 6.815 15.193 15.194 15.193 8.379 0 15.194-6.814 15.194-15.193 0-8.377-6.815-15.193-15.194-15.193zM20.045 9.5c1.655.003 2.018.017 2.88.058 1.009.045 1.7.208 2.305.442.63.238 1.206.613 1.681 1.095.487.475.858 1.047 1.1 1.686.233.601.396 1.295.441 2.305.035.807.045 1.176.048 2.595v1.878c-.002 2.078-.014 2.425-.055 3.36-.045 1.01-.208 1.7-.442 2.306-.494 1.277-1.504 2.287-2.78 2.78-.602.234-1.296.398-2.306.442-.858.038-1.221.052-2.876.055H17.96c-1.655-.003-2.018-.017-2.876-.055-1.01-.044-1.7-.208-2.305-.441-.631-.238-1.207-.613-1.682-1.096-.482-.475-.857-1.047-1.099-1.685-.234-.602-.397-1.296-.441-2.306-.038-.857-.052-1.22-.055-2.875v-2.083c.003-1.654.017-2.018.058-2.879.045-1.01.208-1.7.442-2.305.238-.631.613-1.207 1.095-1.682.475-.486 1.047-.857 1.686-1.099.601-.234 1.295-.397 2.305-.441.858-.038 1.22-.052 2.875-.055h2.083zm-.24 1.726h-1.587c-1.821.002-2.159.015-3.045.055-.925.04-1.43.197-1.764.327-.412.152-.783.393-1.091.709-.32.304-.56.679-.713 1.091-.13.334-.286.835-.327 1.764-.04.883-.052 1.223-.055 3.045v1.586c.003 1.822.016 2.16.055 3.046.041.924.197 1.43.327 1.763.152.412.393.784.709 1.092.304.315.68.557 1.091.709.334.13.836.286 1.764.326.922.042 1.252.054 3.292.056h.83c2.276 0 2.591-.013 3.555-.056.925-.04 1.43-.196 1.764-.326.828-.32 1.485-.976 1.804-1.804.13-.335.286-.836.327-1.764.037-.841.05-1.185.054-2.773V17.95c-.003-1.588-.017-1.935-.054-2.776-.041-.925-.197-1.43-.327-1.764-.152-.412-.394-.783-.71-1.091-.304-.316-.679-.557-1.09-.71-.335-.13-.836-.285-1.764-.326-.884-.04-1.22-.053-3.045-.055zm-.801 2.895c2.695 0 4.882 2.186 4.882 4.882 0 2.695-2.187 4.882-4.882 4.882s-4.882-2.187-4.882-4.882c0-2.696 2.187-4.882 4.882-4.882zm0 1.715c-1.749 0-3.167 1.418-3.167 3.167 0 1.748 1.418 3.167 3.167 3.167 1.748 0 3.167-1.419 3.167-3.167 0-1.749-1.419-3.167-3.167-3.167zm5.075-3.048c.63 0 1.14.51 1.14 1.14 0 .63-.51 1.14-1.14 1.14-.63 0-1.14-.51-1.14-1.14 0-.63.51-1.14 1.14-1.14z" transform="translate(-1 -1)"/>
    </g>
</svg>
