<svg xmlns="http://www.w3.org/2000/svg" width="143" height="156" viewBox="0 0 143 156">
    <path fill="#FFF" fill-rule="evenodd" d="M138.234 15.538H4.767v-8.35c.001-1.322 1.067-2.394 2.383-2.396h128.7c1.316.002 2.382 1.074 2.384 2.397v8.349zM57.92 25.122c-.074-.073-.131-.16-.162-.26l-1.804-4.532h31.09l-1.804 4.533c-.033.096-.086.185-.155.26H57.92zM73.884 39.5v11.98c0 1.324-1.067 2.397-2.384 2.397-1.316 0-2.383-1.073-2.383-2.396V39.5h4.767zm-9.534-4.793c-1.316-.001-2.382-1.073-2.383-2.396v-2.396h19.067v2.396c-.002 1.323-1.068 2.395-2.384 2.396h-14.3zm73.883 74.281h-12.442c4.284-9.477 4.236-20.628-.58-30.212-3.395-7.582-10.624-12.977-14.172-14.811-6.462-3.604-14.076-5.045-21.44-4.06-6.891.923-13.199 3.824-18.37 8.428-6.351-5.662-14.438-8.758-22.999-8.758-9.275 0-17.994 3.632-24.553 10.225-6.558 6.594-10.17 15.36-10.17 24.685 0 5.088 1.078 10.01 3.121 14.503H4.767V20.33h46.052l2.513 6.313c.615 1.715 2.109 2.931 3.868 3.21v2.458c.004 3.968 3.203 7.184 7.15 7.188V51.48c.004 3.969 3.203 7.185 7.15 7.189 3.947-.004 7.146-3.22 7.15-7.189V39.5c3.947-.005 7.146-3.221 7.15-7.19v-2.457c1.759-.279 3.253-1.495 3.868-3.21l2.513-6.313h46.052v88.658zm-22.661 7l-1.71 1.719c-.412-1.09-1.052-2.112-1.924-2.988L88.776 91.432c1.515-.749 2.914-1.749 4.143-2.984l4.442-4.467c.88-.884.88-2.32 0-3.205-.88-.885-2.307-.885-3.188 0l-4.442 4.467c-2.088 2.098-4.862 3.253-7.814 3.253h-8.88c-.598 0-1.171.24-1.594.664l-6.799 6.835c-2.019 2.03-5.303 2.03-7.322 0-2.02-2.03-2.02-5.332 0-7.362l15.52-15.604c9.378-9.428 23.955-11.58 35.606-5.314 0 0 7.99 4.59 11.847 11.34.048.154 1.159 2.317 1.159 2.317 5.495 11.514 3.212 25.474-5.882 34.616zm-6.822 7.605c-.753.757-1.754 1.173-2.819 1.173s-2.066-.416-2.819-1.173l-9.384-9.436-8.825-8.872c-.88-.885-2.308-.885-3.188 0-.88.885-.88 2.32 0 3.205l18.209 18.307c1.555 1.563 1.555 4.106 0 5.668-.753.758-1.754 1.174-2.819 1.174s-2.066-.416-2.819-1.174l-18.209-18.307c-.88-.885-2.307-.885-3.188 0-.88.885-.88 2.32 0 3.206l8.824 8.871.002.003 9.384 9.433c1.554 1.563 1.554 4.106 0 5.668-1.555 1.563-4.084 1.563-5.638 0l-9.384-9.434c-.173-.174-.368-.313-.576-.418l-7.078-7.614c-.88-.885-2.308-.885-3.188 0-.88.885-.88 2.32 0 3.206l16.958 17.545c1.554 1.563 1.554 4.106 0 5.669-.753.757-1.755 1.174-2.82 1.174-1.064 0-2.065-.417-2.818-1.174l-4.778-4.804c.364-.96.557-1.988.557-3.047 0-2.28-.884-4.425-2.488-6.039-1.605-1.613-3.738-2.501-6.007-2.501-.115 0-.23.004-.343.008.09-2.3-.734-4.629-2.476-6.38-1.605-1.613-3.738-2.502-6.007-2.502-.115 0-.229.004-.343.009.09-2.3-.733-4.629-2.476-6.38-1.604-1.614-3.738-2.502-6.006-2.502-.115 0-.23.004-.343.008.09-2.299-.734-4.628-2.476-6.38-3.313-3.33-8.702-3.33-12.015 0l-3.884 3.906c-.49.493-.906 1.032-1.251 1.602-5.295-5.654-8.202-13.005-8.202-20.807 0-8.113 3.143-15.742 8.85-21.48 5.707-5.736 13.294-8.896 21.364-8.896 7.335 0 14.27 2.61 19.757 7.392L54.134 85.428c-1.829 1.84-2.837 4.285-2.837 6.886 0 2.602 1.008 5.047 2.837 6.887 1.889 1.898 4.37 2.847 6.85 2.847 2.48 0 4.961-.949 6.85-2.847l6.138-6.172h7.947c.656 0 1.305-.045 1.946-.125l24.886 25.02c1.553 1.563 1.553 4.106 0 5.669zm-42.093 21.684l-3.885 3.906c-.753.757-1.754 1.174-2.819 1.174-1.064 0-2.066-.417-2.818-1.174-1.555-1.563-1.555-4.106 0-5.668l3.885-3.906c.752-.757 1.753-1.174 2.818-1.174 1.065 0 2.066.416 2.82 1.174.752.757 1.167 1.763 1.167 2.834 0 1.07-.415 2.077-1.168 2.834zm-18.348-4.968c-.753-.756-1.168-1.763-1.168-2.834 0-1.07.415-2.077 1.168-2.834l3.885-3.906c.753-.757 1.754-1.174 2.819-1.174s2.066.417 2.818 1.174c1.555 1.563 1.555 4.106 0 5.668l-3.885 3.906c-1.554 1.563-4.083 1.563-5.637 0zm-8.826-8.873c-.753-.757-1.168-1.763-1.168-2.834 0-1.07.415-2.077 1.168-2.834l3.885-3.906c.753-.757 1.754-1.174 2.819-1.174 1.064 0 2.066.417 2.819 1.174 1.554 1.563 1.554 4.105 0 5.668l-3.885 3.906c-1.555 1.563-4.084 1.563-5.638 0zm-6.007-7.7c-1.065 0-2.066-.416-2.82-1.173-.752-.758-1.167-1.764-1.167-2.834s.415-2.078 1.168-2.835l3.884-3.905c.753-.757 1.755-1.174 2.82-1.174 1.064 0 2.065.417 2.818 1.174 1.555 1.563 1.555 4.105 0 5.668l-3.884 3.906c-.753.756-1.754 1.173-2.82 1.173zM135.85 0H7.15C3.203.004.004 3.22 0 7.189v120.969c.004 3.968 3.203 7.184 7.15 7.188h15.164c1.316 0 2.383-1.072 2.383-2.396 0-1.323-1.067-2.396-2.383-2.396H7.15c-1.316-.001-2.382-1.073-2.383-2.396V113.78h14.515c1.27 1.917 2.738 3.723 4.395 5.39l.85.854c.148.148.312.27.485.368.151 1.96.968 3.879 2.457 5.375 1.656 1.665 3.831 2.497 6.007 2.497.113 0 .226-.003.339-.008-.005.115-.009.23-.009.345 0 2.281.884 4.426 2.488 6.04 1.657 1.665 3.832 2.497 6.007 2.497.113 0 .226-.004.34-.009-.005.115-.01.23-.01.345 0 2.281.885 4.426 2.49 6.04 1.656 1.664 3.83 2.497 6.006 2.497.114 0 .228-.004.343-.009-.092 2.301.733 4.632 2.476 6.385 1.604 1.613 3.738 2.501 6.007 2.501 2.269 0 4.402-.888 6.007-2.501l3.15-3.168 4.256 4.278c1.604 1.614 3.738 2.502 6.007 2.502 2.269 0 4.402-.888 6.006-2.501 1.764-1.774 2.588-4.14 2.474-6.468.141.007.283.011.425.011 2.175 0 4.351-.832 6.007-2.497 1.742-1.752 2.567-4.081 2.476-6.38.114.004.228.007.343.007 2.269 0 4.402-.888 6.007-2.5 1.742-1.753 2.566-4.082 2.476-6.381.114.004.228.008.342.008 2.27 0 4.403-.888 6.007-2.501.815-.82 1.429-1.766 1.843-2.776.22-.108.425-.25.608-.434l4.371-4.395c1.666-1.674 3.133-3.49 4.397-5.412h15.078v14.377c0 1.323-1.067 2.395-2.383 2.396h-17.986c-1.316 0-2.383 1.073-2.383 2.396 0 1.324 1.067 2.396 2.383 2.396h17.986c3.947-.004 7.146-3.22 7.15-7.188V7.188C142.996 3.22 139.797.005 135.85 0z"/>
</svg>
